<?xml version="1.0" encoding="UTF-8"?>
<svg xmlns="http://www.w3.org/2000/svg" xmlns:xlink="http://www.w3.org/1999/xlink" width="20px" height="20px" viewBox="0 0 20 20" version="1.1">
<g id="surface1">
<path style=" stroke:none;fill-rule:nonzero;fill:rgb(0%,0%,0%);fill-opacity:1;" d="M 18.554688 2.023438 C 18.070312 1.621094 17.40625 1.515625 16.820312 1.753906 L 1.886719 7.78125 C 1.234375 8.050781 0.816406 8.695312 0.832031 9.402344 C 0.851562 10.109375 1.308594 10.730469 1.976562 10.964844 L 4.996094 12.015625 L 6.679688 17.582031 C 6.703125 17.65625 6.734375 17.726562 6.777344 17.792969 C 6.785156 17.804688 6.792969 17.8125 6.800781 17.820312 C 6.851562 17.890625 6.910156 17.949219 6.976562 18 C 6.996094 18.015625 7.015625 18.027344 7.035156 18.042969 C 7.113281 18.09375 7.203125 18.132812 7.292969 18.15625 L 7.304688 18.15625 L 7.308594 18.160156 C 7.363281 18.167969 7.421875 18.175781 7.476562 18.175781 C 7.484375 18.175781 7.488281 18.171875 7.492188 18.171875 C 7.578125 18.171875 7.664062 18.15625 7.746094 18.128906 C 7.761719 18.121094 7.78125 18.113281 7.796875 18.105469 C 7.859375 18.078125 7.914062 18.046875 7.96875 18.007812 C 8.011719 17.972656 8.050781 17.9375 8.09375 17.902344 L 10.347656 15.414062 L 13.707031 18.015625 C 14 18.246094 14.363281 18.371094 14.738281 18.375 C 15.546875 18.371094 16.246094 17.804688 16.414062 17.011719 L 19.132812 3.664062 C 19.257812 3.054688 19.035156 2.421875 18.554688 2.023438 Z M 7.808594 12.28125 C 7.691406 12.394531 7.613281 12.542969 7.582031 12.703125 L 7.324219 13.957031 L 6.671875 11.792969 L 10.058594 10.03125 Z M 14.726562 16.699219 L 10.757812 13.625 C 10.414062 13.359375 9.921875 13.402344 9.628906 13.726562 L 8.910156 14.519531 L 9.164062 13.28125 L 15.066406 7.378906 C 15.355469 7.089844 15.390625 6.628906 15.148438 6.296875 C 14.90625 5.964844 14.457031 5.859375 14.089844 6.050781 L 5.621094 10.460938 L 2.515625 9.328125 L 17.5 3.332031 Z M 14.726562 16.699219 "/>
</g>
</svg>
